<?xml version="1.0" standalone="no"?>
<!DOCTYPE svg PUBLIC "-//W3C//DTD SVG 20010904//EN"
 "http://www.w3.org/TR/2001/REC-SVG-20010904/DTD/svg10.dtd">
<svg version="1.0" xmlns="http://www.w3.org/2000/svg"
 width="180.000000pt" height="180.000000pt" viewBox="0 0 180.000000 180.000000"
 preserveAspectRatio="xMidYMid meet">
<metadata>
Created by potrace 1.14, written by Peter Selinger 2001-2017
</metadata>
<g transform="translate(0.000000,180.000000) scale(0.100000,-0.100000)"
fill="#000000" stroke="none">
<path d="M238 1335 c-37 -21 -62 -67 -86 -160 -38 -147 -47 -227 -47 -410 0
-269 27 -335 137 -335 65 0 100 33 123 116 78 286 181 504 238 504 26 0 27
-28 6 -208 -12 -103 -18 -203 -15 -239 6 -69 34 -133 68 -157 29 -20 107 -21
136 0 31 21 39 40 78 177 59 210 190 442 237 424 22 -8 22 -30 -8 -187 -33
-177 -33 -270 1 -337 37 -75 85 -97 202 -91 75 3 96 9 151 38 81 44 213 166
241 226 39 80 17 184 -39 184 -8 0 -60 -47 -115 -105 -106 -109 -160 -144
-195 -126 -42 23 -41 75 5 305 21 103 37 215 38 259 1 77 0 79 -32 108 -28 25
-40 29 -91 29 -70 0 -108 -14 -186 -72 -74 -55 -129 -125 -194 -248 -50 -93
-61 -101 -41 -29 19 67 39 228 33 264 -3 19 -17 46 -31 60 -21 21 -34 25 -89
25 -140 0 -265 -112 -375 -335 -49 -99 -49 -100 -43 -50 4 28 20 107 36 177
17 69 29 144 27 165 l-3 38 -70 2 c-47 2 -79 -2 -97 -12z"/>
</g>
</svg>
